PathFileType	4	(X/Y/Z)	C:/Users/beibeiliu/ov580/test_trc/User2\sequence.20_training_dense_left.trc
DataRate	CameraRate	NumFrames	NumMarkers	Units	OrigDataRate	OrigDataStartFrame	OrigNumFrames
120	120	7	19	mm	120	80	318
Frame#	Time	ThumbCMC			ThumbMCP			ThumbIP			ThumbTip			IndexMCP			IndexPIP			IndexTip			MiddleMCP			MiddlePIP			MiddleTip			RingMCP			RingPIP			RingTip			PinkyMCP			PinkyPIP			PinkyTip			BackHand1			BackHand2			BackHand3	
		X0	Y0	Z0	X1	Y1	Z1	X2	Y2	Z2	X3	Y3	Z3	X4	Y4	Z4	X5	Y5	Z5	X6	Y6	Z6	X7	Y7	Z7	X8	Y8	Z8	X9	Y9	Z9	X10	Y10	Z10	X11	Y11	Z11	X12	Y12	Z12	X13	Y13	Z13	X14	Y14	Z14	X15	Y15	Z15	X16	Y16	Z16	X17	Y17	Z17	X18	Y18	Z18	
79	0.658333	-165.211	20.3418	72.9511	-135.44	10.5092	55.5807	-117.147	-20.4656	43.0086	-122.302	-49.8613	45.5653	-145.438	-31.6666	11.9868	-128.241	-51.8116	-5.27995	-115.673	-66.465	-18.0628	-149.714	-55.4309	11.6924	-130.548	-70.4415	-2.52041	-115.08	-92.2027	-17.7145	-156.036	-68.8813	20.4351	-140.879	-86.6036	10.3644	-121.575	-98.2107	-4.72497	-168.696	-75.7011	44.5708	-154.11	-90.6246	31.0586	-139.263	-100.701	14.2576	-198.843	-38.4659	59.0173	-218.369	-22.0922	73.0639	-194.496	-0.693138	52.6542	
80	0.666667	-170.659	21.8952	70.3446	-137.903	20.1732	53.8144	-119.935	-12.2322	44.0839	-117.417	-39.1046	48.9025	-140.455	-29.7836	8.46418	-122.545	-46.517	-5.05074	-104.64	-60.4548	-19.1393	-142.435	-51.9313	12.1842	-121.334	-68.6152	-2.62044	-102.495	-83.5305	-16.6244	-148.547	-63.3981	24.2711	-129.99	-76.8822	12.1369	-105.843	-90.8107	-4.53809	-158.151	-77.385	45.4563	-140.499	-83.3673	32.8398	-127.087	-96.5212	16.323	-192.607	-44.4595	54.2147	-214.781	-25.0534	73.6091	-195.656	-2.46888	51.8194	
81	0.675	-175.313	27.7974	66.6021	-142.359	23.1472	50.2975	-118.645	-4.30762	41.6561	-113.654	-31.5109	48.8128	-139.126	-23.5501	9.30058	-120.879	-39.3403	-3.09737	-99.7023	-56.1912	-16.1926	-136.454	-45.2451	10.1446	-114.163	-58.7627	-4.39043	-94.3132	-79.1331	-15.865	-142.012	-62.0109	26.2142	-122.688	-74.8773	13.9652	-95.9101	-83.7777	-4.19849	-147.726	-69.5405	45.2324	-130.834	-79.2752	32.4202	-115.24	-93.1018	17.3573	-188.673	-45.0225	57.2026	-212.098	-34.0924	74.6553	-195.357	-6.08932	50.3981	
82	0.683333	-181.24	26.6149	63.0759	-150.217	28.6545	49.3827	-120.775	1.67066	41.3425	-116.285	-24.3902	49.1567	-138.71	-20.1602	6.15754	-118.334	-31.7051	-5.8793	-97.4793	-48.0651	-15.558	-136.352	-41.9714	11.7158	-107.564	-55.1059	-4.96769	-85.1876	-70.5445	-16.7061	-135.987	-58.4277	25.1507	-114.75	-69.7413	14.6912	-89.6596	-73.326	-2.34729	-144.133	-65.7187	50.45	-123.909	-75.7746	35.0042	-106.683	-83.921	20.8134	-183.137	-43.5271	53.4481	-210.864	-34.7248	71.9388	-199.177	-9.71605	49.3502	
83	0.691667	-187.272	24.8904	63.414	-153.866	32.053	43.5174	-125.567	8.49862	38.9839	-114.66	-17.967	47.575	-139.365	-17.0967	5.48836	-116.653	-29.1474	-7.19125	-95.3951	-40.6021	-18.9252	-130.729	-42.909	9.25175	-105.027	-51.7759	-2.81546	-81.3429	-62.2613	-15.2047	-132.445	-54.4707	25.4725	-109.459	-63.2476	14.0996	-82.9529	-69.3235	-1.22338	-137.381	-64.7357	50.5261	-116.74	-72.2907	37.216	-98.2417	-75.0498	18.0402	-179.213	-47.1359	55.9582	-207.136	-41.1276	74.5292	-197.909	-12.4111	46.5707	
84	0.7	-189.308	23.5469	56.7705	-158.526	32.0806	38.9526	-125.111	15.1433	32.0156	-114.062	-10.5379	44.7591	-140.542	-15.5114	3.48071	-113.632	-27.0042	-10.2253	-94.7376	-33.1683	-22.6204	-128.119	-35.9186	5.9799	-104.35	-45.5733	-4.72181	-77.4046	-52.7779	-20.6911	-126.781	-52.4743	23.817	-101.826	-56.0695	9.70676	-77.5703	-59.447	-4.72365	-131.408	-58.6975	45.3952	-109.856	-66.0935	35.1822	-93.8279	-67.3706	16.7964	-176.494	-49.4056	53.7356	-205.311	-41.7094	74.4253	-197.867	-13.999	44.7873	
85	0.708333	-192.779	22.5856	56.1739	-163.908	30.7749	36.7197	-131.306	17.0149	32.5779	-115.233	-6.33064	42.2087	-138.337	-16.2808	1.24232	-117.252	-22.2581	-10.7937	-92.6432	-29.9499	-24.9546	-128.579	-33.8905	4.81539	-99.7066	-39.2157	-10.5799	-75.9558	-45.7984	-23.1853	-121.895	-50.6003	22.6931	-99.8653	-49.586	7.7525	-73.1755	-54.8923	-6.30784	-123.377	-58.8579	44.2615	-104.537	-58.3879	33.1258	-84.8826	-64.2455	13.9567	-172.679	-48.9495	55.9388	-198.844	-44.3731	70.6153	-198.351	-16.1746	46.0432	
